<?xml version="1.0" standalone="no"?> 
<!DOCTYPE svg PUBLIC "-//W3C//DTD SVG 1.1//EN" "http://www.w3.org/Graphics/SVG/1.1/DTD/svg11.dtd" >
<svg xmlns="http://www.w3.org/2000/svg">
<defs>
  <font id="icons" horiz-adv-x="512">
    <font-face font-family="icons"
      units-per-em="512" ascent="576"
      descent="64" />
    <missing-glyph horiz-adv-x="0" />
    <glyph glyph-name="arrow-stroke"
      unicode="&#xE001;"
      horiz-adv-x="512" d=" M213.189 51.139999999999986L120.92699999999999 142.964L233.425 256.001L120.927 369.03999999999996L213.18900000000002 460.86L417.072 256.001L213.189 51.139999999999986zM184.566 143.11599999999999L213.037 114.77999999999997L353.584 256.001L213.037 397.222L184.566 368.88800000000003L296.914 256.001L184.566 143.11599999999999z" />
    <glyph glyph-name="arrow"
      unicode="&#xE002;"
      horiz-adv-x="512" d=" M229.312 462L79.668 462L284.688 256L79.668 50L229.312 50L434.332 256z" />
    <glyph glyph-name="calendar-available"
      unicode="&#xE003;"
      horiz-adv-x="512" d=" M397.389 393.868C397.389 383.83299999999997 389.254 375.698 379.219 375.698S361.048 383.83299999999997 361.048 393.868V439.597C361.048 449.632 369.184 457.767 379.219 457.767S397.389 449.632 397.389 439.597V393.868zM151.889 439.679C151.889 449.714 143.75300000000001 457.851 133.719 457.851C123.68299999999999 457.851 115.548 449.714 115.548 439.679V393.952C115.548 383.91700000000003 123.683 375.78 133.719 375.78C143.753 375.78 151.889 383.91700000000003 151.889 393.952V439.679zM419.352 413.149V394.532C419.352 372.403 401.34799999999996 354.399 379.219 354.399C357.089 354.399 339.085 372.403 339.085 394.53200000000004V413.149H173.852V394.616C173.852 372.485 155.848 354.481 133.719 354.481C111.589 354.481 93.585 372.485 93.585 394.616V413.149H50V54.149H462V413.149H419.352zM422 94.149H90V316.62H422V94.149zM240.885 124.90699999999998C283.171 200.738 312.537 239.712 352.633 274.70399999999995L347.41999999999996 286.691C298.79999999999995 256.43999999999994 272.643 233.649 233.05599999999995 188.724C211.99999999999994 203.735 200.11799999999994 210.63299999999998 181.38299999999995 219.69799999999998L165.36699999999996 204.89099999999996C197.398 175.20299999999997 214.805 155.622 240.885 124.90699999999998z" />
    <glyph glyph-name="code-css"
      unicode="&#xE004;"
      horiz-adv-x="512" d=" M140.869 256C158.555 248.25 171.119 231.5 171.119 202V167.543C171.119 142.58800000000002 193.498 134.63100000000003 212.667 134.04899999999998V97.18799999999999C160.402 97.18799999999999 129.555 115.08799999999997 129.555 163.42199999999997V201.80499999999995C129.555 226.35199999999998 110.05600000000001 237.34199999999993 90.202 237.34199999999993V274.6579999999999C110.056 274.6579999999999 129.555 285.64699999999993 129.555 310.19399999999996V348.5779999999999C129.555 396.91099999999994 160.40300000000002 414.8119999999999 212.667 414.8119999999999V377.9509999999999C193.498 377.3689999999999 171.119 369.4119999999999 171.119 344.4559999999999V310C171.119 280.5 158.555 263.75 140.869 256zM340.881 310V344.456C340.881 369.41200000000003 318.50199999999995 377.369 299.33299999999997 377.951V414.812C351.59799999999996 414.812 382.44499999999994 396.911 382.44499999999994 348.578V310.194C382.44499999999994 285.64700000000005 401.94399999999996 274.658 421.79799999999994 274.658V237.34199999999998C401.94399999999996 237.34199999999998 382.44499999999994 226.35199999999998 382.44499999999994 201.805V163.42200000000003C382.44499999999994 115.08800000000002 351.5969999999999 97.18800000000005 299.33299999999997 97.18800000000005V134.04900000000004C318.50199999999995 134.63100000000003 340.881 142.58800000000002 340.881 167.543V202C340.881 231.5 353.445 248.25 371.131 256C353.445 263.75 340.881 280.5 340.881 310z" />
    <glyph glyph-name="code-html"
      unicode="&#xE005;"
      horiz-adv-x="512" d=" M282.521 374.405H322.195L232.147 137.594H192.695L282.521 374.405zM462 239.615L345.031 173.88V214.642L413.14 253.051L345.031 291.065V331.932L462 266.195V239.615zM50 266.195L166.97 331.931V291.06399999999996L98.86 253.051L166.969 214.642V173.88L50 239.615V266.195z" />
    <glyph glyph-name="code-javascript"
      unicode="&#xE006;"
      horiz-adv-x="512" d=" M130.269 256C147.955 248.25 160.519 231.5 160.519 202V167.543C160.519 142.58800000000002 182.898 134.63100000000003 202.066 134.04899999999998V97.18799999999999C149.802 97.18799999999999 118.955 115.08799999999997 118.955 163.42199999999997V201.80499999999995C118.955 226.35199999999998 99.455 237.34199999999993 79.601 237.34199999999993V274.6579999999999C99.455 274.6579999999999 118.955 285.64699999999993 118.955 310.19399999999996V348.5779999999999C118.955 396.91099999999994 149.803 414.8119999999999 202.066 414.8119999999999V377.9509999999999C182.898 377.3689999999999 160.519 369.4119999999999 160.519 344.4559999999999V310C160.519 280.5 147.954 263.75 130.269 256zM351.481 310V344.456C351.481 369.41200000000003 329.102 377.369 309.93399999999997 377.951V414.812C362.198 414.812 393.04499999999996 396.911 393.04499999999996 348.578V310.194C393.04499999999996 285.64700000000005 412.54499999999996 274.658 432.39899999999994 274.658V237.34199999999998C412.54499999999996 237.34199999999998 393.04499999999996 226.35199999999998 393.04499999999996 201.805V163.42200000000003C393.04499999999996 115.08800000000002 362.19699999999995 97.18800000000005 309.93399999999997 97.18800000000005V134.04900000000004C329.102 134.63100000000003 351.481 142.58800000000002 351.481 167.543V202C351.481 231.5 364.045 248.25 381.731 256C364.046 263.75 351.481 280.5 351.481 310zM283.546 239.712C283.546 239.712 283.546 224.88 283.546 208.558C283.546 180.707 265.94599999999997 158.173 240.302 153.101L235.44199999999998 163.60500000000002C247.31799999999998 168.08000000000004 254.84999999999997 182.45000000000005 254.84999999999997 193.245H234.80399999999997V239.71300000000002H283.546zM283.546 339.949H234.804V291.12800000000004H283.546V339.949z" />
    <glyph glyph-name="code-php"
      unicode="&#xE007;"
      horiz-adv-x="512" d=" M462 224.139L345.031 158.404V199.166L413.14 237.575L345.031 275.58799999999997V316.455L462 250.719V224.139zM50 250.719L166.97 316.455V275.58799999999997L98.86 237.574L166.969 199.16500000000002V158.40300000000002L50 224.139V250.719zM257.602 150.05200000000002C246.09599999999998 150.05200000000002 236.76599999999996 159.38300000000004 236.76599999999996 170.89300000000003C236.76599999999996 182.39600000000002 246.09599999999998 191.72400000000005 257.602 191.72400000000005C269.10999999999996 191.72400000000005 278.43899999999996 182.39600000000007 278.43899999999996 170.89300000000003C278.438 159.38299999999998 269.109 150.05200000000002 257.602 150.05200000000002zM273.984 207.892C273.984 207.892 242.74399999999997 207.892 239.635 207.892C239.635 264.801 281.199 275.144 281.199 304.645C281.199 334.586 234.38600000000002 343.76599999999996 229.59900000000002 299.47799999999995H196.19100000000003C199.24700000000004 387.875 315.80500000000006 374.94899999999996 315.80500000000006 307.52299999999997C315.807 260.52099999999996 273.984 256.584 273.984 207.892z" />
    <glyph glyph-name="device-computer"
      unicode="&#xE008;"
      horiz-adv-x="512" d=" M197.607 105.34500000000003C193.13 89.45800000000003 171.386 67.71400000000006 155.5 63.238000000000056H356.5C341.157 67.20300000000003 318.35699999999997 90.00300000000004 314.39300000000003 105.34500000000003H197.607zM437 448.763H75C61.193 448.763 50 437.57 50 423.76300000000003V155.23800000000006C50 141.43000000000006 61.193 130.23800000000006 75 130.23800000000006H437C450.807 130.23800000000006 462 141.43000000000006 462 155.23800000000006V423.76300000000003C462 437.57 450.807 448.763 437 448.763zM419.891 211H92.109L92.10799999999999 406.653L419.89 406.655V211z" />
    <glyph glyph-name="device-laptop"
      unicode="&#xE009;"
      horiz-adv-x="512" d=" M413.719 391.75C413.719 402.796 404.765 411.75 393.719 411.75H118.052C107.006 411.75 98.052 402.796 98.052 391.75V197.75H413.719V391.75zM386.719 224.75H125.051V384.75H386.719V224.75zM414.719 182.75H97.052L67.093 130.147C63.568000000000005 123.957 63.601000000000006 116.358 67.182 110.19900000000001C70.762 104.04000000000002 77.348 100.25 84.473 100.25H427.529C434.665 100.25 441.26 104.05200000000002 444.836 110.22800000000001C448.41200000000003 116.404 448.427 124.01600000000002 444.875 130.20600000000002L414.719 182.75zM217.816 128.75L225.816 152.25H286.31600000000003L294.31600000000003 128.75H217.816z" />
    <glyph glyph-name="device-mouse"
      unicode="&#xE00A;"
      horiz-adv-x="512" d=" M324.001 462H187.999C154.868 462 128.007 435.144 127.999 402.01099999999997V178C127.999 107.30799999999999 185.069 50 255.761 50C326.454 50 384.001 107.30799999999999 384.001 178V401.98900000000003C384.007 435.125 357.122 462 324.001 462zM272.888 338C272.888 328.33500000000004 265.05199999999996 320.5 255.38799999999998 320.5C245.72199999999998 320.5 237.88799999999998 328.33500000000004 237.88799999999998 338V395C237.88799999999998 404.66499999999996 245.72199999999998 412.5 255.38799999999998 412.5C265.05199999999996 412.5 272.888 404.665 272.888 395V338z" />
    <glyph glyph-name="device-smartphone-bla"
      unicode="&#xE00B;"
      horiz-adv-x="512" d=" M319.76 249.84699999999998V134.88H181.938V332.804H218.624C213.60999999999999 347.368 211.575 362.904 212.91899999999998 378.726H172.83499999999998C162.16799999999998 378.726 153.51999999999998 370.08 153.51999999999998 359.41200000000003C153.51999999999998 359.41200000000003 153.52599999999998 104.221 153.51999999999998 94.29700000000003C153.49499999999998 53.233000000000004 214.18899999999996 50.02600000000001 250.71699999999998 50.00200000000001C287.24199999999996 49.978999999999985 348.178 53.13100000000003 348.178 94.29700000000003C348.178 99.69 348.178 177.082 348.178 246.861C338.824 247.101 329.314 248.099 319.76 249.84699999999998zM250.849 75.37C240.185 75.37 231.54 84.01600000000002 231.54 94.68099999999998S240.185 113.988 250.849 113.988C261.513 113.988 270.157 105.34500000000003 270.157 94.68099999999998S261.513 75.37 250.849 75.37zM351.754 461.999C293.52000000000004 461.999 241.50500000000002 422.8 241.50500000000002 369.183C241.50500000000002 350.16700000000003 248.294 331.495 260.309 317.009C260.815 300.03 250.91700000000003 275.679 241.997 257.93899999999996C265.901 262.29999999999995 299.884 271.933 315.29600000000005 281.46C400.152 260.622 462 313.046 462 369.183C462 423.093 409.623 461.999 351.754 461.999zM311.363 352.462C303.23199999999997 352.462 296.644 359.04999999999995 296.644 367.181C296.644 375.308 303.232 381.89599999999996 311.363 381.89599999999996C319.492 381.89599999999996 326.08 375.308 326.08 367.181C326.08 359.05 319.492 352.462 311.363 352.462zM355.246 352.462C347.11699999999996 352.462 340.529 359.04999999999995 340.529 367.181C340.529 375.308 347.117 381.89599999999996 355.246 381.89599999999996C363.37699999999995 381.89599999999996 369.965 375.308 369.965 367.181C369.965 359.05 363.377 352.462 355.246 352.462zM398.598 352.462C390.467 352.462 383.879 359.04999999999995 383.879 367.181C383.879 375.308 390.46700000000004 381.89599999999996 398.598 381.89599999999996C406.723 381.89599999999996 413.313 375.308 413.313 367.181C413.312 359.05 406.723 352.462 398.598 352.462z" />
    <glyph glyph-name="device-smartphone"
      unicode="&#xE00C;"
      horiz-adv-x="512" d=" M334.832 462H177.168C158.941 462 144.168 447.226 144.168 429V83C144.168 64.774 158.941 50 177.168 50H334.832C353.05899999999997 50 367.832 64.774 367.832 83V429C367.832 447.226 353.059 462 334.832 462zM238.5 431.778H275.5C277.709 431.778 279.5 429.987 279.5 427.778S277.709 423.778 275.5 423.778H238.5C236.291 423.778 234.5 425.569 234.5 427.778S236.291 431.778 238.5 431.778zM257.002 68.94400000000002C248.16400000000002 68.94400000000002 241.002 76.10700000000003 241.002 84.94400000000002S248.16400000000002 100.94400000000002 257.002 100.94400000000002C265.836 100.94400000000002 273.002 93.781 273.002 84.94400000000002S265.836 68.94400000000002 257.002 68.94400000000002zM342.75 118.25H169.252V393.75H342.75V118.25z" />
    <glyph glyph-name="device-tablet--tapped"
      unicode="&#xE00D;"
      horiz-adv-x="512" d=" M261.807 152.02499999999998C261.90000000000003 152.363 262.012 152.69299999999998 262.11600000000004 153.027H94.967V389.527H416.729V247.60899999999998C438.704 239.531 454.46799999999996 210.52299999999997 461.69599999999997 188.058V397.527C461.69599999999997 415.201 447.38 429.527 429.719 429.527H81.977C64.316 429.527 50 415.201 50 397.527V145.027C50 127.35499999999996 64.315 113.02699999999999 81.977 113.02699999999999H279.48C262.668 122.916 258.179 138.889 261.807 152.02499999999998zM268.295 280.276C279.25 280.275 289.796 273.30899999999997 293.257 261.70500000000004C288.819 265.115 283.627 266.779 278.389 266.779C273.081 266.779 267.724 265.07000000000005 263.055 261.736C253.776 255.113 249.672 243.83800000000002 253.24800000000002 233.14800000000002C238.82100000000003 243.488 238.75400000000002 265.06000000000006 253.29000000000002 275.43600000000004C257.924 278.743 263.153 280.276 268.295 280.276M280.333 252.502C284.978 252.502 289.55300000000005 250.332 292.454 246.25800000000004L328.66 195.53500000000003C329.72200000000004 194.04500000000002 331.39700000000005 193.25 333.09700000000004 193.25C334.19100000000003 193.25 335.29400000000004 193.57999999999998 336.252 194.264C338.7 196.012 339.269 199.41200000000003 337.523 201.86L328.59700000000004 214.385C332.63300000000004 215.40999999999997 337.535 216.637 342.961 217.96299999999997C343.708 218.147 344.462 218.23399999999998 345.208 218.23399999999998C348.223 218.23399999999998 351.11600000000004 216.791 352.918 214.25899999999996L360.222 204.01299999999998C361.284 202.52299999999997 362.95799999999997 201.72799999999995 364.659 201.72799999999995C365.752 201.72799999999995 366.855 202.05599999999993 367.812 202.73999999999995C370.259 204.48799999999994 370.83 207.88799999999998 369.084 210.33999999999997L360.647 222.176C365.306 223.252 370.061 224.322 374.757 225.33799999999997C375.424 225.48299999999995 376.094 225.55299999999994 376.759 225.55299999999994C379.78000000000003 225.55299999999994 382.673 224.10199999999992 384.47200000000004 221.57799999999992L390.67600000000004 212.87299999999993C391.73800000000006 211.38299999999992 393.41200000000003 210.5879999999999 395.11300000000006 210.5879999999999C396.20700000000005 210.5879999999999 397.31000000000006 210.91599999999988 398.26900000000006 211.5999999999999C400.71400000000006 213.3479999999999 401.28400000000005 216.74799999999993 399.53800000000007 219.19799999999992L392.58700000000005 228.95399999999995C393.99600000000004 229.21599999999995 395.38200000000006 229.46799999999996 396.73300000000006 229.70199999999994C398.60800000000006 230.02799999999996 400.3740000000001 230.18599999999992 402.0420000000001 230.18599999999992C413.2500000000001 230.18599999999992 420.1740000000001 223.07699999999994 427.8390000000001 212.3209999999999C447.5920000000001 184.60599999999994 442.1150000000001 165.08899999999994 461.99900000000014 137.18799999999993C436.9640000000001 119.31899999999996 411.7070000000001 101.29199999999992 385.34200000000016 82.47299999999996C343.97000000000014 113.32099999999997 308.25100000000015 123.21299999999997 296.7160000000001 127.09199999999998C285.72500000000014 130.789 278.62400000000014 137.844 281.06900000000013 146.69899999999996C283.4040000000001 155.15199999999993 291.86600000000016 158.00199999999995 299.2960000000001 158.00199999999995C299.7400000000001 158.00199999999995 300.1810000000001 157.99199999999996 300.6150000000001 157.97299999999996C312.2550000000001 157.44199999999995 321.6950000000001 153.95299999999997 321.6950000000001 153.95299999999997L268.2310000000001 228.96699999999998C263.4600000000001 235.66199999999998 265.01600000000013 244.959 271.7040000000001 249.733C274.323 251.60199999999998 277.344 252.502 280.333 252.502" />
    <glyph glyph-name="device-tablet"
      unicode="&#xE00E;"
      horiz-adv-x="512" d=" M430 414.25H82C64.326 414.25 50 399.924 50 382.25V129.75C50 112.077 64.326 97.75 82 97.75H430C447.673 97.75 462 112.077 462 129.75V382.25C462 399.924 447.673 414.25 430 414.25zM417 137.75H95V374.25H417V137.75zM439.749 247.5C435.05600000000004 247.5 431.249 251.30599999999998 431.249 256C431.249 260.695 435.05600000000004 264.5 439.749 264.5C444.444 264.5 448.249 260.695 448.249 256C448.249 251.30599999999998 444.444 247.5 439.749 247.5z" />
    <glyph glyph-name="device-tv"
      unicode="&#xE00F;"
      horiz-adv-x="512" d=" M354.544 123.5C333.917 99.46600000000001 297.49399999999997 83.5 255.99899999999997 83.5S178.08199999999997 99.46600000000001 157.45599999999996 123.5H354.544zM462 428.5V148.5H50V428.5H462zM422 388.5H90V188.5H422V388.5z" />
    <glyph glyph-name="email"
      unicode="&#xE010;"
      horiz-adv-x="512" d=" M50 408.593V103.40700000000004H462V408.593H50zM440.687 126.106L315.635 249.524L256.491 190.471L197.82399999999998 250.23000000000002L72.101 126.106L171.04399999999998 272.948L72.101 386.972L256.509 248.43099999999998L440.687 386.472L341.868 272.788L440.687 126.106z" />
    <glyph glyph-name="gears"
      unicode="&#xE011;"
      horiz-adv-x="512" d=" M333.813 264.31899999999996V302.542L313.161 309.88599999999997C305.286 312.68499999999995 298.95 318.69999999999993 295.751 326.42099999999994C295.74899999999997 326.423 295.74699999999996 326.42699999999996 295.74699999999996 326.4309999999999C292.53599999999994 334.169 292.76099999999997 342.90599999999995 296.35599999999994 350.472L305.76399999999995 370.26L278.73499999999996 397.287L258.95199999999994 387.883C251.38999999999993 384.287 242.63999999999993 384.061 234.90499999999994 387.268C234.90099999999995 387.272 234.89699999999993 387.272 234.89499999999995 387.272C227.16799999999995 390.47499999999997 221.16499999999996 396.803 218.36199999999997 404.68399999999997L211.01799999999997 425.33799999999997H172.79499999999996L165.44899999999996 404.68399999999997C162.64799999999997 396.811 156.63699999999994 390.47299999999996 148.91699999999994 387.27199999999993C148.91499999999994 387.27199999999993 148.91099999999994 387.27 148.90699999999995 387.268C141.16699999999994 384.05899999999997 132.42999999999995 384.284 124.86199999999995 387.881L105.07699999999996 397.287L78.049 370.26L87.45500000000001 350.476C91.05100000000002 342.914 91.275 334.164 88.06800000000001 326.427C88.06600000000002 326.42499999999995 88.06600000000002 326.423 88.06200000000001 326.41700000000003C84.86100000000002 318.69399999999996 78.53300000000002 312.688 70.65400000000001 309.88599999999997L50 302.54200000000003V264.319L70.654 256.975C78.527 254.17400000000004 84.863 248.161 88.064 240.442C88.06599999999999 240.438 88.06599999999999 240.43400000000003 88.068 240.43200000000002C91.277 232.692 91.05199999999999 223.95500000000004 87.457 216.387L78.04899999999999 196.60000000000002L105.07799999999999 169.57500000000005L124.86299999999999 178.97700000000003C132.42499999999998 182.57300000000004 141.17499999999998 182.79700000000003 148.91199999999998 179.59000000000003C148.914 179.58800000000002 148.91799999999998 179.586 148.92 179.586C156.64399999999998 176.38300000000004 162.648 170.05900000000003 165.45 162.178L172.796 141.52499999999998H211.019L218.318 162.046C221.14200000000002 169.993 227.209 176.39 234.996 179.628C235 179.63 235.00400000000002 179.63 235.008 179.632C242.674 182.82100000000003 251.328 182.601 258.826 179.038L278.73600000000005 169.575L305.76500000000004 196.59999999999997L296.35300000000007 216.39899999999994C292.7610000000001 223.95399999999995 292.53900000000004 232.69399999999996 295.7440000000001 240.42199999999997C295.7460000000001 240.426 295.7480000000001 240.42799999999994 295.7480000000001 240.43199999999996C298.9550000000001 248.164 305.2870000000001 254.17399999999998 313.1740000000001 256.9789999999999L333.813 264.31899999999996zM191.907 231.39C163.16500000000002 231.39 139.865 254.69099999999997 139.865 283.431C139.865 312.173 163.16500000000002 335.474 191.907 335.474C220.64700000000002 335.474 243.948 312.173 243.948 283.431C243.948 254.69 220.647 231.39 191.907 231.39zM462 151.94V172.26L451.021 176.16199999999998C446.833 177.64999999999998 443.464 180.84999999999997 441.76300000000003 184.95299999999997C441.761 184.95299999999997 441.761 184.95499999999998 441.761 184.957C440.05400000000003 189.072 440.175 193.71699999999998 442.08700000000005 197.74L447.08700000000005 208.26L432.7180000000001 222.627L422.20000000000005 217.627C418.18000000000006 215.71699999999998 413.53000000000003 215.596 409.41700000000003 217.301C409.415 217.301 409.413 217.301 409.41100000000006 217.301C405.30600000000004 219.00599999999997 402.1120000000001 222.36899999999997 400.6240000000001 226.55899999999997L396.7200000000001 237.539H376.4L372.496 226.55899999999997C371.006 222.373 367.81 219.00399999999996 363.707 217.301C363.705 217.301 363.703 217.301 363.701 217.301C359.589 215.596 354.944 215.71499999999997 350.92100000000005 217.627L340.40100000000007 222.627L326.03200000000004 208.26L331.03400000000005 197.74C332.9440000000001 193.72000000000003 333.06300000000005 189.06799999999998 331.35800000000006 184.957C331.35800000000006 184.95499999999998 331.35800000000006 184.95299999999997 331.35600000000005 184.95100000000002C329.65500000000003 180.844 326.2900000000001 177.65200000000004 322.10200000000003 176.16200000000003L311.122 172.26000000000005V151.94000000000005L322.10200000000003 148.03700000000003C326.288 146.54900000000004 329.65700000000004 143.353 331.35600000000005 139.24800000000005C331.35800000000006 139.24600000000004 331.35800000000006 139.24400000000003 331.35800000000006 139.24200000000008C333.06500000000005 135.12900000000008 332.9460000000001 130.4840000000001 331.03400000000005 126.46100000000007L326.03200000000004 115.94100000000009L340.40100000000007 101.57400000000007L350.92100000000005 106.57200000000006C354.94100000000003 108.48400000000004 359.59100000000007 108.60300000000007 363.70300000000003 106.89800000000008C363.70500000000004 106.89800000000008 363.70500000000004 106.89600000000007 363.70700000000005 106.89600000000007C367.8140000000001 105.19500000000005 371.0040000000001 101.83200000000005 372.49600000000004 97.64400000000006L376.40000000000003 86.66200000000003H396.72L400.59900000000005 97.57200000000006C402.10100000000006 101.79700000000008 405.326 105.19700000000006 409.46600000000007 106.92000000000007C409.4680000000001 106.92000000000007 409.4700000000001 106.92200000000008 409.47200000000004 106.92200000000008C413.54600000000005 108.61700000000008 418.148 108.50000000000006 422.134 106.60600000000011L432.718 101.5750000000001L447.087 115.94200000000012L442.085 126.4670000000001C440.17499999999995 130.48500000000007 440.056 135.13100000000009 441.75899999999996 139.2380000000001C441.75899999999996 139.24000000000012 441.76099999999997 139.24200000000013 441.76099999999997 139.24200000000013C443.46799999999996 143.35300000000012 446.83299999999997 146.54900000000015 451.025 148.0410000000001L462 151.94zM386.561 134.43599999999998C371.282 134.43599999999998 358.89599999999996 146.82299999999998 358.89599999999996 162.101C358.89599999999996 177.38 371.282 189.767 386.561 189.767S414.227 177.38 414.227 162.101C414.227 146.822 401.84 134.43599999999998 386.561 134.43599999999998z" />
    <glyph glyph-name="github"
      unicode="&#xE012;"
      horiz-adv-x="512" d=" M461.633 261.355L462 265.174C439.104 267.395 416.33299999999997 267.59299999999996 394.21 265.904C397.767 277.251 399.64 290.068 399.505 304.643C399.213 335.60799999999995 388.889 359.724 372.662 379.739C375.77799999999996 398.591 373.431 417.441 367.551 436.29999999999995C344.364 434.402 323.498 426.807 304.917 413.614C270.19199999999995 420.65799999999996 235.46999999999997 421.10699999999997 200.74499999999998 413.614C179.07199999999997 428.241 157.789 435.41599999999994 136.83599999999998 436.29999999999995C130.62599999999998 415.53499999999997 129.66699999999997 395.067 134.91899999999998 374.943C116.63899999999998 355.546 109.65099999999998 331.99899999999997 109.99399999999999 305.924C110.18999999999998 290.99699999999996 112.48999999999998 277.715 116.73199999999999 265.972C94.93599999999998 267.57099999999997 72.53099999999998 267.35799999999995 49.999999999999986 265.174L50.36699999999998 261.355C73.31399999999998 263.58299999999997 96.12699999999998 263.76599999999996 118.28599999999997 262.033C119.09999999999997 260.05899999999997 119.91899999999997 258.094 120.85299999999998 256.21799999999996C96.84399999999998 256.851 75.23499999999999 254.765 54.99899999999998 249.788L55.91299999999998 246.065C76.45099999999998 251.113 98.45299999999997 253.14600000000002 123.01999999999998 252.31900000000002C139.266 223.45500000000004 170.54 206.495 216.08299999999997 201.11400000000003C205.50199999999998 192.52000000000004 199.81399999999996 182.38300000000004 198.34799999999996 170.913C198.34799999999996 170.913 193.56099999999995 170.913 174.22699999999995 170.913C141.83299999999994 170.913 133.00099999999995 212.21699999999998 99.44799999999995 208.142C132 192 125.5 140.401 177.587 140.401C195.093 140.401 198.813 140.401 199.468 140.401V93.10500000000002C199.702 85.46200000000005 196.375 80.351 190.999 76.80799999999999C209.653 74.92399999999998 223.673 84.238 223.673 95.66199999999998S223.673 152.60999999999996 223.673 158.17999999999995S229.506 164.17999999999995 229.506 164.17999999999995V91.18799999999993C229.751 83.92299999999994 226.222 79.79599999999994 222.475 75.84899999999993C238.909 75.19499999999994 254.367 78.47799999999995 255.067 92.46399999999994C255.067 92.46399999999994 255.067 158.80899999999997 255.067 162.3209999999999S260.823 165.9199999999999 260.823 162.3209999999999S260.823 95.74099999999993 260.823 95.74099999999993C260.99199999999996 83.94099999999992 271.18399999999997 74.37399999999991 292.77599999999995 75.84799999999996C286.99999999999994 80.49799999999993 285.227 85.19799999999998 285.227 91.99799999999993S285.227 164.17899999999992 285.227 164.17899999999992S291.17699999999996 164.4849999999999 291.17699999999996 158.17899999999992S291.17699999999996 107.8479999999999 291.17699999999996 97.29799999999989C291.17699999999996 83.74799999999988 307.44399999999996 78.1579999999999 326.006 78.68299999999988C319.92499999999995 83.24099999999987 315.80999999999995 88.67399999999986 315.78299999999996 95.93899999999985V169.15599999999984C315.15399999999994 179.91799999999984 310.78 190.06199999999984 302.20099999999996 199.51399999999984C343.83099999999996 205.90599999999984 373.83799999999997 222.52499999999986 388.779 252.30999999999983C413.426 253.1569999999998 435.494 251.12699999999984 456.086 246.06399999999985L457 249.78699999999986C436.606 254.80099999999987 414.819 256.88299999999987 390.584 256.2019999999999C391.423 258.09299999999985 392.254 259.9909999999999 392.973 261.98699999999985C415.363 263.78499999999997 438.431 263.60900000000004 461.633 261.355zM114 201.97699999999998C112.977 201.97699999999998 112.147 202.565 112.147 203.28999999999996C112.147 204.01799999999997 112.977 204.60499999999996 114 204.60499999999996C115.024 204.60499999999996 115.854 204.01699999999994 115.854 203.28999999999996C115.854 202.56400000000002 115.024 201.97699999999998 114 201.97699999999998zM119.833 197.997C118.696 197.997 117.773 198.65000000000003 117.773 199.457S118.696 200.91899999999998 119.833 200.91899999999998S121.892 200.264 121.892 199.457S120.97 197.997 119.833 197.997zM125.75 192.82799999999997C124.417 192.82799999999997 123.335 193.594 123.335 194.53999999999996S124.41699999999999 196.25399999999996 125.75 196.25399999999996C127.083 196.25399999999996 128.166 195.486 128.166 194.53999999999996S127.083 192.82799999999997 125.75 192.82799999999997zM131.5 186.62099999999998C129.94 186.62099999999998 128.675 187.517 128.675 188.62399999999997S129.94 190.62899999999996 131.5 190.62899999999996S134.325 189.73099999999994 134.325 188.62399999999997S133.06 186.62099999999998 131.5 186.62099999999998zM137.833 179.606C136.1 179.606 134.694 180.60199999999998 134.694 181.832S136.1 184.06 137.833 184.06S140.972 183.062 140.972 181.832S139.566 179.606 137.833 179.606zM145.167 172.483C143.241 172.483 141.679 173.59000000000003 141.679 174.957S143.241 177.433 145.167 177.433C147.092 177.433 148.654 176.324 148.654 174.957S147.092 172.483 145.167 172.483zM155.083 165.709C152.943 165.709 151.208 166.94 151.208 168.45800000000003C151.208 169.97700000000003 152.943 171.209 155.083 171.209S158.958 169.97699999999998 158.958 168.45800000000003C158.958 166.94 157.223 165.709 155.083 165.709zM167.375 162.084C165.235 162.084 163.5 163.315 163.5 164.83300000000003C163.5 166.35200000000003 165.235 167.584 167.375 167.584S171.25 166.35199999999998 171.25 164.83300000000003C171.25 163.315 169.515 162.084 167.375 162.084zM180.333 161.66699999999997C178.193 161.66699999999997 176.458 162.89799999999997 176.458 164.416C176.458 165.935 178.193 167.16699999999997 180.333 167.16699999999997S184.208 165.93499999999995 184.208 164.416C184.208 162.89800000000002 182.473 161.66699999999997 180.333 161.66699999999997zM193.125 161.41699999999997C190.985 161.41699999999997 189.25 162.64799999999997 189.25 164.166C189.25 165.685 190.985 166.91699999999997 193.125 166.91699999999997S197 165.68499999999995 197 164.166C197 162.64800000000002 195.265 161.41699999999997 193.125 161.41699999999997z" />
    <glyph glyph-name="help"
      unicode="&#xE013;"
      horiz-adv-x="512" d=" M256 446.647C147.19 446.647 50 373.399 50 273.216C50 237.683 62.684 202.79500000000002 85.13499999999999 175.723C86.083 144 67.583 98.5 50.918 65.35300000000001C95.583 73.5 159.083 91.5 187.881 109.303C346.438 70.36399999999998 462 168.32299999999998 462 273.217C462 373.949 364.132 446.647 256 446.647zM261.707 168.789C249.44299999999998 168.789 239.49699999999999 178.736 239.49699999999999 191.00399999999996C239.49699999999999 203.26599999999996 249.44299999999998 213.20899999999995 261.707 213.20899999999995C273.975 213.20899999999995 283.918 203.26599999999996 283.918 191.00399999999996C283.918 178.736 273.975 168.789 261.707 168.789zM279.17 234.438V230.44399999999996C279.17 230.44399999999996 245.87 230.44399999999996 242.55700000000002 230.44399999999996V234.438C242.55700000000002 245.745 244.20700000000002 260.24699999999996 257.332 272.856C270.459 285.466 286.86199999999997 295.883 286.86199999999997 311.63599999999997C286.86199999999997 329.051 274.777 338.26300000000003 259.537 338.26300000000003C234.14399999999998 338.26300000000003 232.486 311.928 231.85999999999999 306.129H196.25C197.199 333.59000000000003 208.805 372 259.75 372C303.9 372 323.75 342.432 323.75 314.704C323.75 270.56899999999996 279.17 262.903 279.17 234.438z" />
    <glyph glyph-name="home"
      unicode="&#xE014;"
      horiz-adv-x="512" d=" M419.492 236.185V69.97199999999998H300.725V160.30199999999996H211.27400000000003V69.97199999999998H92.507V236.185H50L256 442.028L462 236.18400000000003H419.492zM394.072 423.528H346.155V385.217L394.072 337.194V423.528z" />
    <glyph glyph-name="keyboard"
      unicode="&#xE015;"
      horiz-adv-x="512" d=" M50 390.5V121.5H462V390.5H50zM323.081 349.658H362.598V316.36199999999997H323.081V349.658zM178.476 264.68899999999996V297.985H217.992V264.68899999999996H178.476zM188.918 246.312V213.015H149.40200000000002V246.312H188.918zM207.296 246.312H246.81099999999998V213.015H207.296V246.312zM236.368 264.68899999999996V297.985H275.883V264.68899999999996H236.368zM265.188 246.312H304.703V213.015H265.188V246.312zM294.262 264.68899999999996V297.985H333.776V264.68899999999996H294.262zM265.188 349.658H304.703V316.36199999999997H265.188V349.658zM207.296 349.658H246.81099999999998V316.36199999999997H207.296V349.658zM149.402 349.658H188.91799999999998V316.36199999999997H149.402V349.658zM91.51 349.658H131.025V316.36199999999997H91.51V349.658zM91.51 297.985H160.098V264.689H91.51V297.985zM131.024 213.01600000000002H91.51V246.313H131.025V213.01600000000002zM362.598 161.34199999999998H149.402V194.639H362.597V161.34199999999998zM362.598 213.01600000000002H323.081V246.313H362.598V213.01600000000002zM420.49 213.01600000000002H380.974V246.313H420.49V213.01600000000002zM420.49 264.68899999999996H352.154V297.985H420.49V264.68899999999996zM420.49 316.36199999999997H380.974V349.658H420.49V316.36199999999997z" />
    <glyph glyph-name="linkedin"
      unicode="&#xE016;"
      horiz-adv-x="512" d=" M150.65 411.318C150.65 383.326 128.142 360.635 100.37700000000001 360.635C72.61200000000001 360.635 50.104000000000006 383.326 50.104000000000006 411.318C50.104 439.30899999999997 72.612 462 100.377 462C128.143 462 150.65 439.30899999999997 150.65 411.318zM143.294 324.66700000000003H58.277V50H143.29399999999998V324.66700000000003zM279.195 324.66700000000003H197.654V50H279.195C279.195 50 279.195 151.877 279.195 194.18100000000004C279.195 232.80500000000006 296.974 255.79600000000005 331.002 255.79600000000005C362.27 255.79600000000005 377.291 233.72500000000002 377.291 194.18100000000004C377.291 154.63600000000002 377.291 50 377.291 50H461.896C461.896 50 461.896 150.344 461.896 223.91499999999996S420.207 333.04599999999994 361.962 333.04599999999994S279.19399999999996 287.67699999999996 279.19399999999996 287.67699999999996V324.66700000000003z" />
    <glyph glyph-name="pencil"
      unicode="&#xE017;"
      horiz-adv-x="512" d=" M74.686 171.31400000000002L50 51.05099999999999L172.365 73.63499999999999L379.52 280.789L281.84 378.469L74.686 171.31400000000002zM303.088 306.96799999999996L121.19700000000003 125.07799999999997L99.98400000000004 146.291L281.875 328.181L303.088 306.96799999999996zM462 363.269L409.338 310.60699999999997L311.656 408.28700000000003L364.318 460.95L462 363.269z" />
    <glyph glyph-name="quote-left--stroke"
      unicode="&#xE018;"
      horiz-adv-x="512" d=" M80 140.16500000000002V212.70300000000003C80 278.75 105.884 323.343 148.45999999999998 349.659C120.44499999999998 312.5 118.89299999999997 272.75 118.89299999999997 243.54500000000002H191.37999999999997V140.16500000000002H80M50 110.16500000000002H221.38V273.545H150.893C150.893 311.5 177.381 349.16700000000003 219.135 364.904L202.048 401.835C111.881 384 50 317.629 50 219.70299999999997C50 162.317 50 110.16500000000002 50 110.16500000000002L50 110.16500000000002zM320.62 140.16500000000002V212.70300000000003C320.62 278.75 346.504 323.343 389.08 349.659C361.065 312.5 359.513 272.75 359.513 243.54500000000002H432V140.16500000000002H320.62M290.62 110.16500000000002H462V273.545H391.51300000000003C391.51300000000003 311.5 418.00100000000003 349.16700000000003 459.75500000000005 364.904L442.66800000000006 401.835C352.501 384 290.62 317.629 290.62 219.70299999999997C290.62 162.317 290.62 110.16500000000002 290.62 110.16500000000002L290.62 110.16500000000002z" />
    <glyph glyph-name="quote-left"
      unicode="&#xE019;"
      horiz-adv-x="512" d=" M290.619 110.16500000000002C290.619 110.16500000000002 290.619 162.317 290.619 219.70300000000003C290.619 317.629 352.5 384 442.668 401.83500000000004L459.755 364.90400000000005C418 349.16700000000003 391.512 311.5 391.512 273.54499999999996H462V110.16499999999996H290.619zM50 110.16500000000002C50 110.16500000000002 50 162.317 50 219.70300000000003C50 317.629 111.881 384 202.048 401.835L219.135 364.904C177.381 349.16700000000003 150.89299999999997 311.5 150.89299999999997 273.545H221.37999999999997V110.16500000000002H50z" />
    <glyph glyph-name="quote-right--stroke"
      unicode="&#xE01A;"
      horiz-adv-x="512" d=" M432 371.83500000000004V299.297C432 233.25 406.116 188.65700000000004 363.54 162.341C391.555 199.5 393.107 239.25 393.107 268.45500000000004H320.62V371.83500000000004H432M462 401.835H290.62V238.45499999999998H361.10699999999997C361.10699999999997 200.5 334.61899999999997 162.83299999999997 292.86499999999995 147.096L309.95199999999994 110.16500000000002C400.119 128 462 194.37099999999998 462 292.297C462 349.683 462 401.835 462 401.835L462 401.835zM191.38 371.83500000000004V299.297C191.38 233.25 165.49599999999998 188.65700000000004 122.92 162.341C150.935 199.5 152.487 239.25 152.487 268.45500000000004H80V371.83500000000004H191.38M221.38 401.835H50V238.45499999999998H120.487C120.487 200.5 93.999 162.83299999999997 52.24499999999999 147.096L69.332 110.16500000000002C159.499 128 221.38 194.37099999999998 221.38 292.297C221.38 349.683 221.38 401.835 221.38 401.835L221.38 401.835z" />
    <glyph glyph-name="quote-right"
      unicode="&#xE01B;"
      horiz-adv-x="512" d=" M221.381 401.835C221.381 401.835 221.381 349.683 221.381 292.297C221.381 194.37099999999998 159.5 128 69.332 110.16499999999996L52.24499999999999 147.09599999999995C94 162.83300000000003 120.488 200.5 120.488 238.45499999999998H50V401.835H221.381zM462 401.835C462 401.835 462 349.683 462 292.297C462 194.37099999999998 400.119 128 309.952 110.16499999999996L292.865 147.09599999999995C334.619 162.83299999999997 361.107 200.49999999999994 361.107 238.45499999999993H290.62V401.8349999999999H462z" />
    <glyph glyph-name="skype"
      unicode="&#xE01C;"
      horiz-adv-x="512" d=" M445.115 222.30700000000002C447.033 233.207 448.092 244.401 448.092 255.851C448.092 362.023 362.02 448.092 255.84699999999998 448.092C243.74899999999997 448.092 231.92799999999997 446.923 220.44899999999998 444.784C203.46999999999997 455.122 183.53199999999998 461.076 162.19699999999997 461.076C100.229 461.076 50 410.848 50 348.88C50 327.283 56.116 307.124 66.686 290.008C64.69600000000001 278.914 63.602000000000004 267.517 63.602000000000004 255.851C63.602000000000004 149.67399999999998 149.671 63.601999999999975 255.847 63.601999999999975C268.169 63.601999999999975 280.201 64.80899999999997 291.874 67.024C308.78700000000003 56.807000000000016 328.60400000000004 50.92399999999998 349.805 50.92399999999998C411.769 50.92399999999998 462 101.15599999999995 462 163.123C462 184.85199999999998 455.805 205.125 445.115 222.30700000000002zM262.622 121.332C207.871 121.332 152.841 146.154 153.12 188.889C153.205 201.78000000000003 162.834 213.61400000000003 175.639 213.61400000000003C207.871 213.61400000000003 207.577 165.70800000000003 258.90700000000004 165.70800000000003C294.93000000000006 165.70800000000003 307.218 185.35600000000005 307.218 199.04400000000004C307.218 248.49700000000007 151.561 218.17900000000003 151.561 311.19500000000005C151.561 361.5300000000001 192.916 396.25700000000006 257.915 392.43800000000005C319.91 388.79600000000005 356.22900000000004 361.53000000000003 359.752 336.0590000000001C361.487 319.427 350.418 306.485 331.211 306.485C303.173 306.485 300.303 343.869 252.02700000000002 343.869C230.24300000000002 343.869 211.846 334.817 211.846 315.16900000000004C211.846 274.107 366.584 297.94900000000007 366.584 207.58100000000002C366.583 155.47899999999998 324.879 121.332 262.622 121.332z" />
    <glyph glyph-name="speech-bubble"
      unicode="&#xE01D;"
      horiz-adv-x="512" d=" M256 446.647C147.19 446.647 50 373.399 50 273.216C50 237.683 62.684 202.79500000000002 85.13499999999999 175.723C86.083 144 67.583 98.5 50.918 65.35300000000001C95.583 73.5 159.083 91.5 187.881 109.303C346.438 70.36399999999998 462 168.32299999999998 462 273.217C462 373.949 364.132 446.647 256 446.647zM180.527 241.97199999999998C165.339 241.97199999999998 153.027 254.284 153.027 269.472S165.339 296.972 180.527 296.972S208.027 284.65999999999997 208.027 269.472S195.716 241.97199999999998 180.527 241.97199999999998zM262.527 241.97199999999998C247.339 241.97199999999998 235.027 254.284 235.027 269.472S247.339 296.972 262.527 296.972S290.027 284.65999999999997 290.027 269.472S277.716 241.97199999999998 262.527 241.97199999999998zM343.527 241.97199999999998C328.339 241.97199999999998 316.027 254.284 316.027 269.472S328.339 296.972 343.527 296.972S371.027 284.65999999999997 371.027 269.472S358.716 241.97199999999998 343.527 241.97199999999998z" />
    <glyph glyph-name="speech-bubbles"
      unicode="&#xE01E;"
      horiz-adv-x="512" d=" M174.059 157.62599999999998C174.028 157.63399999999996 173.99699999999999 157.64 173.966 157.647C148.074 141.68200000000002 90.983 125.53999999999996 50.825 118.23500000000001C65.809 147.96000000000004 82.441 188.762 81.589 217.212C61.403 241.48899999999998 50 272.776 50 304.642C50 394.48199999999997 137.38299999999998 460.169 235.209 460.169C332.429 460.169 420.42 394.976 420.42 304.642C420.42 303.35900000000004 420.39300000000003 302.078 420.35400000000004 300.798C409.069 306.88599999999997 396.84800000000007 311.83500000000004 383.732 315.478C376.87800000000004 376.339 312.89000000000004 424.193 235.21000000000004 424.193C152.97300000000004 424.193 86.06900000000005 370.562 86.06900000000005 304.642C86.06900000000005 269.954 101.07800000000005 248.113 122.26100000000005 226.574C117.95500000000006 194.594 107.61500000000005 166.793 107.61500000000005 166.793S138.15700000000004 174.85700000000003 172.86800000000005 195.06799999999998C171.395 182.38400000000001 171.806 169.899 174.059 157.62599999999998zM461.432 51.83100000000002C433.798 56.860000000000014 394.51 67.96800000000002 376.693 78.95400000000001C278.591 54.92500000000001 207.093 115.37799999999999 207.093 180.108C207.093 242.274 267.645 287.137 334.546 287.137C401.868 287.137 462 241.93399999999997 462 180.108C462 158.18 454.15 136.651 440.262 119.94400000000002C439.674 100.36599999999999 451.121 72.28800000000001 461.432 51.83100000000002zM302.524 178.80200000000002C302.524 188.45000000000005 294.683 196.27100000000002 285.009 196.27100000000002C275.336 196.27100000000002 267.494 188.45100000000002 267.494 178.80200000000002S275.336 161.33100000000002 285.009 161.33100000000002C294.684 161.33100000000002 302.524 169.15300000000002 302.524 178.80200000000002zM354.75 178.80200000000002C354.75 188.45000000000005 346.909 196.27100000000002 337.235 196.27100000000002C327.562 196.27100000000002 319.72 188.45100000000002 319.72 178.80200000000002S327.562 161.33100000000002 337.235 161.33100000000002C346.909 161.33100000000002 354.75 169.15300000000002 354.75 178.80200000000002zM406.339 178.80200000000002C406.339 188.45000000000005 398.497 196.27100000000002 388.824 196.27100000000002C379.15000000000003 196.27100000000002 371.309 188.45100000000002 371.309 178.80200000000002S379.15000000000003 161.33100000000002 388.824 161.33100000000002C398.497 161.33100000000002 406.339 169.15300000000002 406.339 178.80200000000002z" />
    <glyph glyph-name="star"
      unicode="&#xE01F;"
      horiz-adv-x="512" d=" M256 367.095L294.315 288.053L381.328 276.038L317.995 215.173L333.457 128.70600000000002L256 170.13099999999997L178.543 128.70599999999996L194.005 215.17299999999994L130.672 276.03799999999995L217.685 288.05299999999994L256 367.095M256 451.918L193.02100000000002 321.99800000000005L49.999 302.25L154.1 202.207L128.685 60.081999999999994L256 128.17200000000003L383.315 60.081999999999994L357.9 202.207L462.001 302.25L318.979 321.998L256 451.918z" />
    <glyph glyph-name="twitter"
      unicode="&#xE020;"
      horiz-adv-x="512" d=" M462 383.777C446.842 377.053 430.551 372.508 413.453 370.467C430.902 380.928 444.30699999999996 397.49199999999996 450.61699999999996 417.231C434.284 407.544 416.19499999999994 400.51 396.941 396.72C381.52299999999997 413.148 359.55499999999995 423.411 335.243 423.411C280.683 423.411 240.575 372.495 252.906 319.624C182.656 323.148 120.37200000000001 356.801 78.68299999999999 407.938C56.541 369.955 67.198 320.24699999999996 104.841 295.08799999999997C90.987 295.52599999999995 77.94999999999999 299.329 66.556 305.66200000000003C65.639 266.5 93.702 229.88099999999997 134.351 221.71300000000002C122.455 218.476 109.425 217.735 96.181 220.26600000000002C106.935 186.68600000000004 138.153 162.24800000000005 175.141 161.567C139.604 133.71800000000002 94.846 121.279 50 126.56400000000002C87.406 102.582 131.837 88.58700000000005 179.571 88.58700000000005C336.503 88.58700000000005 425.166 221.13800000000003 419.822 340.02200000000005C436.339 351.93899999999996 450.668 366.826 462 383.777z" />
    <glyph glyph-name="user"
      unicode="&#xE021;"
      horiz-adv-x="512" d=" M407.448 151.526C348.412 165.14300000000003 293.45899999999995 177.067 320.073 227.243C401.08299999999997 379.972 341.546 461.649 256.001 461.649C168.76999999999998 461.649 110.69799999999998 376.837 191.92899999999997 227.243C219.34099999999998 176.76099999999997 162.32099999999997 164.85000000000002 104.55399999999997 151.526C45.54199999999997 137.91700000000003 50.080999999999975 106.803 50.080999999999975 50.35000000000002H461.919C461.919 106.80399999999997 466.458 137.91699999999997 407.448 151.526z" />
  </font>
</defs>
</svg>
