<?xml version="1.0" encoding="UTF-8" standalone="no"?>
<!-- Created with Inkscape (http://www.inkscape.org/) -->
<svg xmlns:svg="http://www.w3.org/2000/svg" xmlns="http://www.w3.org/2000/svg" version="1.0" width="1016" height="194" id="svg1339">
  <defs id="defs1342"/>
  <g transform="translate(-16.92808,279.3133)" id="g1348">
    <path d="M 96.467178,-86.553737 C 77.475898,-90.194327 61.123155,-98.627227 46.780441,-112.17653 C 26.097349,-131.71547 14.708244,-161.74853 17.289571,-189.94396 C 20.365973,-223.54702 38.756007,-251.71641 68.195029,-267.91965 C 85.147213,-277.25013 110.55872,-281.55124 128.71846,-278.16375 C 129.76565,-277.96841 132.6092,-277.47766 135.03749,-277.07318 C 141.95288,-275.92131 152.70509,-271.95741 160.8306,-267.56432 C 205.17193,-243.59098 223.47307,-190.43756 203.62562,-143.27141 C 194.30842,-121.12974 172.99029,-100.39935 150.86552,-91.965917 C 135.21186,-85.999127 111.60979,-83.650917 96.467178,-86.553737 z M 120.37801,-95.649907 C 125.0617,-96.468587 132.50692,-98.419977 136.92294,-99.986337 C 167.82112,-110.9459 190.98607,-141.27868 193.74058,-174.38481 L 194.40404,-182.35897 L 202.83894,-182.35897 L 211.52318,-182.35897 L 211.10162,-185.20887 C 210.81833,-186.72476 210.13366,-190.11752 209.5836,-192.86287 C 207.03452,-205.58534 196.33625,-221.40557 183.61735,-228.12278 C 173.83844,-233.2873 167.23584,-234.76336 156.23298,-234.2448 C 131.38344,-233.07366 112.79038,-218.24078 106.71655,-194.74236 C 105.84108,-191.35539 105.1248,-187.18355 105.1248,-185.47161 L 105.03664,-182.35897 L 96.031808,-182.35897 L 87.423689,-182.31479 L 87.744879,-187.62076 C 91.305498,-215.61223 108.28316,-235.29739 134.1221,-241.93928 C 142.48869,-244.08992 157.68964,-244.11607 165.61917,-241.99346 C 177.04457,-238.93508 187.95345,-232.22679 196.41384,-223.05665 C 199.17446,-220.06444 199.8886,-219.6249 199.02992,-221.44653 C 198.38031,-222.82462 194.17325,-227.57097 189.68087,-231.99399 C 180.65468,-240.88083 169.94632,-247.07897 158.11987,-250.26192 C 149.30458,-252.63446 131.02033,-252.56986 122.12322,-250.13475 C 102.79122,-244.84366 86.054362,-231.15412 77.044262,-213.26348 C 73.243031,-205.71567 70.128057,-194.17558 70.128057,-187.64091 L 70.128057,-182.35897 L 61.012964,-182.35897 L 52.206427,-182.35897 L 52.541791,-189.12413 C 55.702736,-222.33365 77.786367,-249.0334 110.12433,-258.74308 C 119.5053,-261.55977 137.41915,-262.24562 147.42086,-260.17099 C 164.16913,-256.69696 177.85383,-249.13619 190.07079,-236.60703 C 196.30018,-230.21844 197.01823,-229.70392 194.44386,-233.47348 C 189.70251,-240.41604 176.2298,-252.76697 168.14909,-257.57887 C 144.21321,-271.83216 113.80437,-273.95401 88.255421,-263.15362 C 56.792815,-249.85335 36.248459,-219.79605 34.230589,-184.1129 C 34.187648,-183.35355 35.124027,-199.43932 34.175859,-182.35715 C 32.875056,-182.32942 29.513386,-182.35897 25.987557,-182.35897 L 17.042717,-182.31479 L 17.871576,-176.13912 C 18.202071,-172.6939 19.807652,-167.57586 20.739163,-164.81968 C 22.757215,-158.84862 29.710603,-147.81606 33.746545,-144.18158 C 46.996984,-132.24919 64.049191,-127.27409 80.127127,-130.64972 C 103.04257,-135.46092 120.72458,-154.97787 122.4347,-177.34775 L 122.77949,-181.85785 L 131.95046,-182.14603 L 141.12145,-182.43419 L 141.10409,-179.13929 C 141.08204,-174.95637 138.94766,-165.36559 137.38589,-161.37971 C 134.88227,-154.99012 134.63387,-155.3404 131.95982,-151.36649 C 123.09488,-138.19229 112.21794,-128.32263 97.703903,-123.56271 C 90.894436,-121.32953 87.820912,-120.91056 78.127313,-120.89415 C 68.255047,-120.87742 65.590865,-121.24368 59.294141,-123.4832 C 47.026709,-127.84631 36.791988,-135.15576 28.779915,-145.2759 C 27.252479,-147.20522 27.935928,-145.90917 30.298691,-142.39579 C 49.07186,-114.48047 87.358785,-104.09329 117.6509,-118.69728 C 125.70604,-122.58071 138.01647,-131.96863 143.54873,-138.44696 C 151.23473,-147.4473 157.16542,-162.19291 158.69078,-176.09494 L 159.37808,-182.35897 L 167.89666,-182.35897 L 176.41523,-182.35897 L 175.82052,-174.09045 C 174.00766,-148.88547 156.54724,-122.84746 134.32282,-112.20664 C 112.3729,-101.69725 91.59993,-100.01515 70.699967,-107.05476 C 56.48642,-111.84223 42.338186,-121.96553 32.690458,-134.25121 L 29.935799,-137.75906 L 31.783625,-134.36293 C 34.372289,-129.6052 47.560425,-115.69361 54.008099,-110.91929 C 64.039645,-103.49123 81.874538,-96.429387 94.625779,-94.836467 C 101.83755,-93.935547 112.49626,-94.272227 120.37801,-95.649907 z M 805.55966,-117.61968 C 781.55466,-122.3017 771.05358,-134.79715 771.06865,-158.66123 C 771.07184,-163.70208 771.49261,-170.30698 772.00371,-173.33877 C 772.51481,-176.37056 774.56072,-188.09683 776.55019,-199.39714 C 782.49303,-233.15286 785.04416,-247.96251 785.05311,-248.75771 C 785.05776,-249.17114 794.66789,-249.5094 806.40895,-249.5094 L 827.75634,-249.5094 L 825.98223,-239.23638 C 824.12883,-228.50423 820.07189,-205.41593 815.54778,-179.85336 C 812.73777,-163.97597 812.72957,-157.98226 815.51205,-153.72573 C 821.02383,-145.29402 840.54731,-146.50037 847.552,-155.70546 C 852.55027,-162.27384 852.26168,-160.96956 865.31314,-235.97909 L 867.58019,-249.00827 L 888.81506,-249.27877 C 900.49425,-249.42753 910.04785,-249.20203 910.04531,-248.77765 C 910.04276,-248.35326 908.73688,-240.78986 907.14337,-231.97011 C 905.54985,-223.15035 902.83349,-207.816 901.10701,-197.89377 C 896.67697,-172.43389 895.22153,-165.91767 891.92883,-156.80172 C 888.61376,-147.62383 881.61827,-136.75283 875.83374,-131.7899 C 870.04215,-126.82092 859.26781,-121.45894 850.35597,-119.11057 C 840.19859,-116.43397 815.8018,-115.62201 805.55966,-117.61968 z M 944.54673,-117.68176 C 922.88446,-122.48225 910.54459,-134.60562 909.27935,-152.33042 L 908.78133,-159.30733 L 929.41377,-159.30733 C 949.25784,-159.30733 950.04622,-159.23208 950.04622,-157.33772 C 950.04622,-154.41087 955.63514,-148.57389 959.73678,-147.21706 C 964.73305,-145.56429 976.06112,-146.52067 980.20225,-148.94488 C 987.8783,-153.43841 987.80661,-160.0487 980.03951,-163.96452 C 977.5669,-165.2111 970.14435,-167.63551 963.54496,-169.3521 C 948.627,-173.23247 944.29325,-174.67642 938.05446,-177.84525 C 926.32769,-183.80154 921.07526,-191.90065 921.05868,-204.05223 C 921.02503,-228.72799 939.30738,-247.28031 967.80974,-251.49366 C 979.8458,-253.27288 985.3964,-253.4788 994.04213,-252.46681 C 1010.6629,-250.52136 1021.7078,-244.65245 1027.7458,-234.55774 C 1031.1814,-228.8139 1033.3658,-220.5403 1032.8539,-215.21035 L 1032.5385,-211.92736 L 1012.8177,-211.91361 L 993.09682,-211.89986 L 992.49607,-214.64161 C 991.63645,-218.56449 986.96479,-222.0826 981.53064,-222.89941 C 968.13316,-224.91319 958.51654,-217.78563 964.69731,-210.42303 C 967.26772,-207.36113 973.70434,-204.94977 993.03142,-199.80819 C 1010.719,-195.10279 1021.2855,-188.5808 1025.5785,-179.71902 C 1031.1189,-168.28241 1026.8281,-149.11971 1015.8414,-136.23291 C 1009.9944,-129.37482 997.5714,-122.59624 984.54301,-119.15508 C 974.45485,-116.49052 953.41891,-115.71563 944.54673,-117.68176 z M 275.3286,-131.23244 C 278.67209,-137.57826 282.63661,-145.02534 284.13864,-147.78152 C 287.14256,-153.29358 299.13784,-175.74419 306.6295,-189.87581 C 309.25954,-194.83693 313.98222,-203.63163 317.12433,-209.41959 C 320.26644,-215.20756 325.55559,-225.13342 328.87801,-231.47708 C 332.20042,-237.82073 335.74773,-244.47028 336.76093,-246.25385 L 338.60308,-249.49672 L 360.35106,-249.50305 C 373.15358,-249.50679 382.09904,-249.1246 382.09904,-248.57387 C 382.09904,-247.81168 384.6631,-233.13371 387.62572,-216.93643 C 387.9282,-215.28273 391.52214,-195.43827 395.61227,-172.83764 C 399.70239,-150.23702 403.50966,-129.30261 404.07287,-126.31674 C 404.63606,-123.33088 404.83698,-120.62742 404.51935,-120.30904 C 404.20172,-119.99067 394.77161,-119.72217 383.56354,-119.71237 L 363.18525,-119.69456 L 362.55039,-125.21895 C 362.20122,-128.25737 361.59148,-132.09638 361.1954,-133.75008 L 360.47526,-136.75682 L 339.77799,-137.02776 L 319.08073,-137.29868 L 314.79925,-128.51468 L 310.51776,-119.73068 L 289.88364,-119.71264 L 269.24953,-119.6946 L 275.3286,-131.23244 z M 357.56289,-167.3444 C 357.50332,-172.75402 353.37582,-208.4767 352.7363,-209.11772 C 352.57738,-209.27701 351.15911,-206.59128 349.58457,-203.14943 C 348.01004,-199.70759 344.50499,-192.15592 341.79557,-186.36795 C 335.44738,-172.80673 332.10369,-165.23634 332.10369,-164.42472 C 332.10369,-164.06904 337.84065,-163.79551 344.8525,-163.81685 L 357.60132,-163.85565 L 357.56289,-167.3444 z M 416.39075,-120.89519 C 416.14044,-121.549 416.61502,-125.61084 417.44537,-129.9215 C 418.27573,-134.23216 420.36891,-145.87725 422.09689,-155.79948 C 426.01607,-178.30381 430.38188,-203.10079 434.09599,-223.95215 C 435.667,-232.7719 437.26029,-242.13037 437.63663,-244.74873 L 438.3209,-249.5094 L 459.81376,-249.5094 L 481.30663,-249.5094 L 480.74363,-247.25435 C 480.21794,-245.14868 477.9702,-232.4691 471.63804,-195.88928 C 470.20671,-187.62076 468.40475,-177.47303 467.63367,-173.33877 C 466.8626,-169.20451 464.82589,-157.70374 463.10764,-147.78152 C 461.3894,-137.85929 459.54885,-127.48331 459.01752,-124.72376 L 458.05145,-119.70642 L 437.44865,-119.70642 C 422.48088,-119.70642 416.72138,-120.03156 416.39075,-120.89519 z M 485.08946,-120.60857 C 485.08946,-121.11131 486.63793,-130.13695 488.53049,-140.66556 C 490.42306,-151.19415 493.15556,-166.57361 494.60272,-174.84213 C 496.04988,-183.11066 498.54919,-197.31748 500.15674,-206.41286 C 501.7643,-215.50823 504.10043,-228.81304 505.34814,-235.97909 L 507.6167,-249.00827 L 548.09827,-249.00827 C 583.98872,-249.00827 589.47579,-248.79779 596.47983,-247.15237 C 612.89489,-243.29607 619.9254,-236.24858 620.46759,-223.10666 C 621.2015,-205.31792 612.14292,-188.90773 598.44905,-183.21867 L 593.05358,-180.97714 L 598.79266,-177.90964 C 609.59439,-172.13617 611.51842,-165.46483 608.15461,-145.44812 C 605.68303,-130.74068 605.49864,-124.66613 607.50046,-123.89617 C 608.29316,-123.59127 608.7124,-122.21085 608.44759,-121.19586 C 608.00706,-119.50735 606.41154,-119.707 586.52725,-119.707 L 565.08202,-119.707 L 565.08583,-124.72405 C 565.08792,-127.48343 565.755,-133.8002 566.56823,-138.76131 C 570.24082,-161.16601 568.0034,-164.17332 546.9858,-165.08201 L 535.38898,-165.5834 L 534.81143,-162.1948 C 529.20723,-129.3142 527.94454,-122.49563 527.22505,-121.22798 C 526.51469,-119.97641 522.98602,-119.7276 505.7323,-119.71253 C 493.95119,-119.70222 485.08946,-120.08689 485.08946,-120.60857 z M 568.82512,-194.90352 C 580.23251,-198.29908 583.49486,-210.35838 574.76119,-216.84629 C 572.2257,-218.72982 570.57058,-218.94092 558.33881,-218.94092 L 544.73609,-218.94092 L 542.57294,-206.1623 L 540.40979,-193.38367 L 552.06446,-193.38367 C 559.56907,-193.38367 565.53731,-193.92487 568.82512,-194.90352 z M 625.58477,-121.68428 C 625.827,-122.80812 627.1595,-130.26728 628.54586,-138.26019 C 629.93223,-146.25309 632.22332,-159.33239 633.63717,-167.3253 C 636.31641,-182.47182 639.11321,-198.49344 643.52219,-223.95215 C 644.95415,-232.22067 646.59804,-241.36313 647.17529,-244.26873 L 648.22483,-249.55162 L 686.39601,-249.4176 C 726.88178,-249.27545 734.23247,-248.64573 743.85308,-244.4953 C 750.17562,-241.76769 756.72984,-234.77558 757.66932,-229.756 C 758.82345,-223.5896 757.4664,-213.77183 754.66727,-208.03724 C 751.93547,-202.4406 746.06273,-195.67237 740.08606,-191.23267 L 736.60669,-188.64807 L 740.58601,-186.6033 C 748.99721,-182.28122 753.10017,-174.09465 752.41225,-163.00658 C 751.22238,-143.82791 739.28614,-129.22262 720.33767,-123.75984 C 708.20773,-120.26282 703.36914,-119.91885 664.35675,-119.78024 C 625.38305,-119.64176 625.14704,-119.65336 625.58477,-121.68428 z M 705.50277,-152.15902 C 710.64795,-154.4403 713.06826,-158.30189 713.06826,-164.22974 C 713.06826,-169.33264 710.50451,-171.86176 703.89048,-173.28353 C 698.28418,-174.48868 678.07608,-174.72794 678.06263,-173.58933 C 678.05775,-173.1759 677.2052,-167.87653 676.16807,-161.81295 C 675.02328,-155.11987 674.65349,-150.55598 675.22692,-150.19708 C 675.74642,-149.87194 681.77565,-149.73904 688.62522,-149.90176 C 698.34482,-150.13264 702.0502,-150.62821 705.50277,-152.15902 z M 708.798,-199.36088 C 715.43938,-202.38276 718.93353,-210.0662 716.08909,-215.39353 C 714.51079,-218.34949 709.50789,-219.44204 697.55058,-219.44204 L 686.33095,-219.44204 L 685.23454,-213.67913 C 684.63151,-210.50953 683.84007,-205.54842 683.47577,-202.65444 L 682.81341,-197.39265 L 693.69123,-197.41466 C 702.24862,-197.43198 705.47115,-197.84714 708.798,-199.36088 z " style="fill:#001a58" id="path1350"/>
  </g>
</svg>