<?xml version="1.0" encoding="utf-8"?>
<!-- Generator: Adobe Illustrator 16.0.0, SVG Export Plug-In . SVG Version: 6.00 Build 0)  -->
<!DOCTYPE svg PUBLIC "-//W3C//DTD SVG 1.1//EN" "http://www.w3.org/Graphics/SVG/1.1/DTD/svg11.dtd">
<svg version="1.1" id="Layer_1" xmlns="http://www.w3.org/2000/svg" xmlns:xlink="http://www.w3.org/1999/xlink" x="0px" y="0px"
	 width="1590.267px" height="511.999px" viewBox="20.983 32.875 1590.267 511.999"
	 enable-background="new 20.983 32.875 1590.267 511.999" xml:space="preserve">
<g>
	<path d="M1395.261,82.874c54.471,54.229,108.951,108.467,163.637,162.911c-4.404,4.372-8.713,8.624-12.994,12.904
		c-12.176,12.168-24.312,24.371-36.553,36.469c-0.941,0.933-2.58,1.638-3.898,1.641c-47.289,0.081-94.578,0.066-141.869,0.058
		c-0.811,0-1.621-0.068-2.369-0.101c16.889-16.847,33.711-33.628,50.705-50.584c-30.418-30.277-60.363-60.081-90.184-89.756
		C1346.659,131.485,1371.11,107.031,1395.261,82.874z"/>
	<path d="M1171.786,406.422c-0.353,15.572-2.975,30.547-10.35,44.416c-9.82,18.465-25.293,30.098-44.877,36.557
		c-17.193,5.674-34.791,6.713-52.669,4.186c-12.724-1.797-24.778-5.506-35.805-12.225c-17.219-10.488-27.781-25.695-31.7-45.42
		c-3.87-19.471-2.523-38.646,4.81-57.123c8.5-21.416,24.323-35.596,45.764-43.238c26.249-9.358,52.754-9.763,78.775,0.789
		c25.375,10.287,40.349,29.297,44.578,56.465C1171.116,395.979,1171.312,401.223,1171.786,406.422z M1128.235,406.352
		c-0.146-1.73-0.285-4.34-0.594-6.932c-1.301-10.908-5.064-20.797-12.833-28.764c-18.614-19.094-51.136-15.975-66.64,6.438
		c-9.492,13.721-11.844,29.148-9.58,45.365c2.885,20.666,17.464,36.881,39.352,38.734c14.691,1.248,27.086-3.551,36.775-14.656
		C1124.501,435.322,1127.892,421.779,1128.235,406.352z"/>
	<path d="M441.035,490.764c1.717-27.102,3.424-54.074,5.156-81.373c-3.672,1.76-6.893,3.736-10.387,4.9
		c-9.818,3.27-19.832,5.959-29.6,9.359c-6.322,2.201-12.566,4.85-18.453,8.025c-6.006,3.24-10.163,8.365-10.837,15.531
		c-0.896,9.514,3.788,16.199,13.16,18.859c10.294,2.918,20.535,1.906,30.706-0.727c2.667-0.689,5.272-1.609,8.39-2.572
		c-1.205,4.227-2.289,8.061-3.393,11.891c-1.471,5.094-2.895,10.201-4.492,15.254c-0.267,0.836-1.214,1.922-1.998,2.066
		c-18.147,3.322-36.34,4.582-54.352-0.584c-23.958-6.873-33.943-26.338-31.875-47.818c1.583-16.455,11.131-27.16,25.006-34.713
		c11.497-6.254,24.048-9.521,36.619-12.748c11.485-2.947,22.995-5.844,34.349-9.246c3.938-1.18,7.682-3.461,11.101-5.836
		c9.354-6.494,7.826-20.701-4.156-25.377c-8.148-3.184-16.635-3.33-25.18-2.818c-19.018,1.141-37.138,6.15-54.834,12.926
		c-0.541,0.209-1.108,0.346-2.046,0.633c0.583-3.787,1.113-7.322,1.677-10.854c0.958-5.985,2.008-11.958,2.871-17.955
		c0.255-1.776,0.925-2.557,2.728-2.972c18.662-4.292,37.446-7.622,56.631-8.556c13.286-0.648,26.47-0.421,39.463,2.671
		c8.962,2.132,17.301,5.626,24.049,12.167c7.389,7.159,10.811,16.074,10.576,26.193c-0.304,13.061-1.046,26.115-1.73,39.166
		c-0.497,9.516-1.396,19.012-1.774,28.525c-0.709,17.951-1.186,35.91-1.71,53.867c-0.045,1.504-0.291,2.305-2.079,2.297
		c-14.185-0.061-28.369-0.033-42.553-0.043C441.662,490.902,441.258,490.797,441.035,490.764z"/>
	<path d="M575.774,402.863c8.282,0.777,16.164,0.762,23.84-1.719c8.357-2.701,15.131-7.254,17.409-16.312
		c1.813-7.211,1.378-14.158-4.591-19.588c-3.149-2.867-7.107-4.412-11.273-4.619c-12.183-0.611-24.38-0.91-36.823-1.34
		c-0.325,4.912-0.67,9.18-0.877,13.451c-0.632,13.057-1.332,26.109-1.776,39.172c-0.634,18.543-1.084,37.094-1.574,55.641
		c-0.179,6.748-0.264,13.498-0.359,20.246c-0.017,1.193-0.028,2.127-1.679,2.123c-14.522-0.047-29.042-0.039-43.563-0.057
		c-0.235,0-0.467-0.143-1.036-0.326c5.992-52.961,7.286-106.199,7.686-159.833c1.148,0,2.126,0,3.103,0
		c28.367,0.025,56.738-0.118,85.104,0.143c12.831,0.12,25.387,2.208,36.582,9.136c10.521,6.511,15.939,16.141,16.75,28.426
		c0.92,13.957-2.417,26.424-12.939,36.283c-6.379,5.977-14.025,9.838-22.146,12.85c-1.252,0.461-2.494,0.941-4.361,1.645
		c10.638,23.867,21.202,47.566,31.882,71.535c-0.972,0.074-1.682,0.176-2.394,0.176c-14.858,0.016-29.717,0.008-44.577,0.021
		c-1.385,0-2.468,0.064-3.006-1.797c-8.248-28.467-18.688-56.182-28.938-83.959C576.101,403.855,576.004,403.545,575.774,402.863z"
		/>
	<path d="M1250.696,402.846c9.26,0.891,18.014,0.648,26.492-2.621c11.479-4.43,17.072-13.902,15.166-25.941
		c-1.125-7.111-6.66-12.244-15.078-13.486c-4.486-0.664-9.053-0.941-13.594-1.031c-8.01-0.158-16.029-0.045-24.373-0.045
		c-0.188,1.947-0.457,3.834-0.541,5.729c-0.938,20.812-1.93,41.621-2.729,62.436c-0.502,13.064-0.721,26.139-1.027,39.211
		c-0.158,6.832-0.232,13.666-0.342,20.498c-0.02,1.205,0.098,2.33-1.762,2.324c-14.521-0.059-29.045-0.045-43.566-0.062
		c-0.232-0.002-0.463-0.158-0.961-0.338c6.002-52.975,7.297-106.223,7.697-159.659c0.934-0.061,1.668-0.151,2.4-0.149
		c28.707,0.016,57.416-0.143,86.119,0.146c13.004,0.129,25.73,2.316,36.961,9.562c9.965,6.427,15.137,15.775,16.018,27.549
		c0.949,12.678-1.594,24.346-10.295,34.062c-6.695,7.475-15.338,11.979-24.592,15.453c-1.254,0.469-2.52,0.918-4.062,1.477
		c9.268,24.404,21.115,47.609,31.477,71.795c-1.145,0.061-1.947,0.137-2.752,0.139c-14.775,0.008-29.553-0.014-44.33,0.035
		c-1.643,0.008-2.506-0.312-3.029-2.119c-8.236-28.303-18.58-55.879-28.818-83.492
		C1251.03,403.939,1250.921,403.547,1250.696,402.846z"/>
	<path d="M733.92,393.721c23.208,0,46.039,0,69.269,0c-0.676,10.092-1.362,20.316-2.062,30.773c-23.071,0-45.906,0-69.122,0
		c-0.689,11.529-1.365,22.84-2.063,34.5c27.675,0.35,55.117-0.016,82.922-1.676c-0.636,10.896-1.258,21.535-1.891,32.377
		c-43.229,0-86.317,0-129.793,0c5.604-53.104,7.899-106.297,8.163-159.792c43.108,0,86.113,0,129.49,0
		c-0.493,10.593-0.982,21.137-1.46,31.421c-27.21-0.438-54.022-0.863-81.409-1.305C735.266,371.504,734.594,382.594,733.92,393.721z
		"/>
	<path d="M70.813,329.604c5.994,0,11.474,0,16.953,0c9.205,0.001,18.408,0.066,27.61-0.047c2.028-0.025,2.935,0.558,3.546,2.537
		c11.441,37.049,22.956,74.074,34.457,111.107c0.391,1.256,0.793,2.508,1.335,4.217c2.672-6.898,5.191-13.391,7.703-19.887
		c12.324-31.861,24.648-63.723,36.959-95.59c0.498-1.287,0.817-2.384,2.678-2.375c14.945,0.082,29.892,0.052,44.837,0.062
		c0.329,0.002,0.66,0.082,1.311,0.168c-2.306,4.993-4.609,9.83-6.788,14.721c-19.384,43.526-38.755,87.054-58.106,130.595
		c-2.084,4.691-3.958,9.475-6.089,14.145c-0.34,0.748-1.524,1.578-2.322,1.584c-15.283,0.092-30.565,0.033-45.848,0.119
		c-1.866,0.01-2.166-1.025-2.614-2.352c-7.194-21.186-14.251-42.424-21.663-63.533c-10.175-28.975-20.626-57.852-30.952-86.771
		C72.834,335.543,71.903,332.763,70.813,329.604z"/>
	<path d="M898.6,400.307c2.9,0,5.5,0.037,8.101-0.006c7.438-0.119,14.421-1.631,19.994-7.002c6.24-6.016,8.02-17.412,4.026-25.105
		c-2.14-4.119-5.679-6.75-10.068-7.303c-6.15-0.773-12.408-0.904-18.619-0.936c-4.182-0.021-8.37,0.6-12.678,0.941
		c-2.73,42.945-4.172,85.799-4.219,128.854c-14.678,0-29.068,0-43.789,0c3.85-53.234,6.078-106.426,6.799-159.861
		c0.793-0.066,1.521-0.179,2.25-0.179c28.538,0.017,57.075-0.149,85.608,0.154c12.983,0.138,24.593,4.256,32.809,15.077
		c6.586,8.681,8.977,18.798,8.955,29.47c-0.034,15.436-4.904,29.008-16.654,39.518c-9.379,8.389-20.611,12.783-33.035,13.617
		c-7.021,0.471-14.118-0.15-21.172-0.424c-0.723-0.025-1.857-0.936-2.041-1.635C902.709,417.184,900.7,408.846,898.6,400.307z"/>
	<path d="M1359.647,329.84c49.969,0,99.578,0,149.402,0c-0.424,10.561-0.84,20.968-1.262,31.531
		c-17.086-0.361-33.973-0.717-51.049-1.08c-3.111,43.273-4.799,86.223-5.623,129.41c-16.061,0-31.955,0-48.166,0
		c4.289-43.016,6.576-85.986,6.939-129.441c-17.164,0.422-34.064,0.836-51.307,1.262
		C1358.937,350.929,1359.288,340.51,1359.647,329.84z"/>
	<path d="M260.052,490.916c5.172-53.807,7.146-107.35,7.459-161.13c16.116,0,31.921,0,47.85,0
		c-0.502,6.642-1.027,13.091-1.472,19.543c-0.648,9.419-1.453,18.835-1.811,28.265c-0.874,23.084-1.626,46.172-2.235,69.262
		c-0.364,13.746-0.415,27.496-0.476,41.244c-0.012,2.195-0.549,2.879-2.82,2.863c-14.515-0.102-29.033-0.049-43.549-0.047
		C262.172,490.916,261.345,490.916,260.052,490.916z"/>
	<path d="M268.995,272.483c16.229,0,31.745,0,47.443,0c0.053,0.805,0.165,1.536,0.138,2.261c-0.339,9.017-0.707,18.03-1.045,27.046
		c-0.048,1.277-0.4,2.064-1.894,2.058c-14.774-0.05-29.548-0.065-44.323-0.098c-0.155,0-0.311-0.111-0.319-0.114
		C268.995,293.264,268.995,282.958,268.995,272.483z"/>
</g>
</svg>
